<svg width="1233" height="1044" viewBox="0 0 1233 1044" fill="none" xmlns="http://www.w3.org/2000/svg">
<path d="M831.661 36.8582C878.591 24.1598 912.708 22.0191 958.02 33.4351C982.127 39.5084 1009.7 59.5119 1030.27 76.6902C1040.79 85.4772 1049.91 93.9007 1056.4 100.124C1059.65 103.239 1062.24 105.812 1064.04 107.614C1064.94 108.516 1065.63 109.225 1066.11 109.714C1066.35 109.958 1066.53 110.148 1066.66 110.279C1066.72 110.344 1066.77 110.395 1066.81 110.431C1066.82 110.449 1066.84 110.462 1066.85 110.473C1066.85 110.478 1066.86 110.483 1066.86 110.486C1066.86 110.487 1066.86 110.489 1066.86 110.49C1066.86 110.497 1066.66 110.69 1059.65 117.412L1066.86 110.492L1068.76 112.471L1220.53 762.34L1211.03 764.763L183.721 1026.86L169.927 1030.38L171.295 1016.22L181.248 1017.18C171.634 1016.25 171.306 1016.21 171.295 1016.21C171.295 1016.21 171.295 1016.21 171.295 1016.2C171.296 1016.2 171.297 1016.19 171.298 1016.18C171.3 1016.16 171.303 1016.13 171.306 1016.1C171.313 1016.03 171.323 1015.93 171.336 1015.8C171.362 1015.55 171.4 1015.18 171.452 1014.7C171.556 1013.74 171.713 1012.34 171.931 1010.55C172.366 1006.96 173.042 1001.79 174.014 995.39C175.955 982.594 179.081 964.829 183.828 944.925C193.247 905.438 209.338 856.247 236.115 821.084C283.633 758.684 315.211 702.043 331.701 644.668C341.263 611.397 343.765 589.586 345.627 564.578C347.507 539.314 348.741 510.489 355.872 464.238C358.711 445.823 359.799 426.135 360.782 406.055C361.756 386.177 362.627 365.823 365.124 346.924C370.073 309.459 381.885 273.785 417.932 257.212C453.291 240.956 473.525 236.896 492.466 236.777C501.438 236.72 510.289 237.575 519.21 238.095C528.357 238.627 538.642 238.906 551.89 237.88C567.459 236.673 575.661 233.323 587.57 225.591C593.925 221.466 601.007 216.299 610.825 209.396C620.516 202.582 632.473 194.367 648.053 184.538C677.65 165.867 704.13 135.355 733.577 105.252C762.236 75.9539 793.704 47.1287 831.661 36.8582Z" fill="#662BF5" stroke="#FF3D00" stroke-width="20"/>
</svg>
