<svg width="399" height="353" viewBox="0 0 399 353" fill="none" xmlns="http://www.w3.org/2000/svg">
<path d="M165.957 295.171C139.259 318.346 117.925 331.239 85.9029 340.129C68.4758 344.967 45.3353 342.775 27.823 339.912C18.8115 338.438 10.798 336.697 5.03816 335.325C2.1535 334.638 -0.17859 334.041 -1.80122 333.612C-2.61254 333.398 -3.24797 333.225 -3.68711 333.104C-3.90634 333.044 -4.07685 332.996 -4.19618 332.963C-4.2559 332.946 -4.30345 332.932 -4.33722 332.923C-4.35392 332.918 -4.36754 332.915 -4.37775 332.912C-4.38289 332.91 -4.38698 332.908 -4.39046 332.907C-4.39218 332.906 -4.39435 332.906 -4.3952 332.906C-4.39408 332.895 -4.30924 332.592 -1.65074 323.29L-4.39857 332.905L-7.41084 332.044L-271.518 8.87342L-264.018 2.52309L322.005 -493.632L333.448 -503.32L337.996 -489.033L328.467 -486C337.996 -489.033 337.997 -489.031 337.998 -489.028C337.998 -489.027 337.999 -489.024 338 -489.022C338.001 -489.018 338.003 -489.011 338.006 -489.004C338.01 -488.99 338.015 -488.972 338.022 -488.949C338.037 -488.903 338.057 -488.839 338.083 -488.757C338.133 -488.594 338.205 -488.361 338.297 -488.06C338.479 -487.46 338.739 -486.589 339.061 -485.473C339.704 -483.24 340.596 -480.019 341.612 -475.991C343.642 -467.944 346.181 -456.634 348.226 -443.536C352.274 -417.61 354.579 -383.538 346.292 -353.809C331.949 -302.36 326.352 -259.894 330.327 -222.302C332.631 -200.51 336.466 -187.563 341.536 -172.901C346.706 -157.95 353.298 -140.886 360.53 -111.887C363.317 -100.717 367.516 -89.3582 371.979 -77.5657C376.365 -65.9783 381.049 -53.8636 384.313 -42.0075C390.878 -18.1556 392.433 7.39576 373.075 29.773C354.653 51.0685 342.694 60.3515 330.477 66.9314C324.738 70.0224 318.799 72.5705 313.075 75.2521C307.174 78.0165 300.634 81.2979 292.55 86.3125C283.17 92.131 278.968 96.6488 273.491 104.882C270.523 109.343 267.368 114.62 262.856 121.906C258.416 129.077 252.886 137.821 245.46 148.712C231.551 169.108 222.582 195.088 211.427 222.365C200.613 248.805 187.778 276.229 165.957 295.171Z" fill="#662BF5" stroke="#FF3D00" stroke-width="20"/>
</svg>
