<svg width="1000" height="793" viewBox="0 0 1000 793" fill="none" xmlns="http://www.w3.org/2000/svg">
<path d="M884.362 10.28C932.95 8.58674 966.661 14.2609 1008.19 35.6823C1030.28 47.0786 1052.58 72.8282 1068.71 94.2341C1076.95 105.184 1083.92 115.461 1088.83 122.997C1091.28 126.769 1093.22 129.865 1094.56 132.028C1095.23 133.11 1095.75 133.959 1096.1 134.544C1096.28 134.836 1096.41 135.062 1096.51 135.218C1096.55 135.297 1096.59 135.358 1096.61 135.4C1096.63 135.421 1096.64 135.438 1096.64 135.45C1096.65 135.456 1096.65 135.462 1096.65 135.466C1096.65 135.467 1096.66 135.469 1096.66 135.47C1096.65 135.476 1096.41 135.618 1088.05 140.57L1096.66 135.473L1098.05 137.831V805.186L1088.26 805.386L28.2588 826.997L14.0264 827.287L18.5801 813.8L28.0547 816.999C18.9034 813.909 18.5919 813.802 18.582 813.796C18.5825 813.794 18.583 813.791 18.584 813.788C18.5859 813.782 18.5887 813.775 18.5918 813.765C18.5981 813.747 18.607 813.721 18.6182 813.688C18.6405 813.623 18.6723 813.529 18.7139 813.408C18.797 813.166 18.9186 812.815 19.0781 812.36C19.3973 811.45 19.8686 810.124 20.4883 808.427C21.7274 805.034 23.5621 800.153 25.9639 794.139C30.7641 782.12 37.8483 765.531 46.998 747.228C65.15 710.918 92.0055 666.675 126.077 638.523C186.541 588.564 230.172 540.588 259.278 488.466C276.157 458.242 283.553 437.571 291.053 413.642C298.629 389.468 306.386 361.679 323.848 318.261C330.8 300.974 336.338 282.049 341.861 262.719C347.33 243.583 352.807 223.961 359.536 206.125C372.876 170.767 392.491 138.714 431.362 130.773C469.492 122.984 490.119 123.631 508.591 127.823C517.341 129.808 525.765 132.654 534.334 135.188C543.121 137.787 553.072 140.398 566.207 142.411C581.643 144.776 590.391 143.379 603.747 138.558C610.873 135.986 618.945 132.565 630.075 128.076C641.062 123.645 654.574 118.364 671.981 112.336C705.048 100.884 737.773 77.1941 773.295 54.5759C807.865 32.5632 845.064 11.6495 884.362 10.28Z" fill="#662BF5" stroke="#FF3D00" stroke-width="20"/>
</svg>
