<svg width="2339" height="880" viewBox="0 0 2339 880" fill="none" xmlns="http://www.w3.org/2000/svg">
<path d="M447.906 822.146C346.828 820.07 278.257 812.035 193.582 788.158C150.197 775.924 105.143 749.557 71.3504 726.688C54.358 715.189 40.0203 704.44 29.9226 696.561C24.8711 692.619 20.8734 689.389 18.1286 687.137C16.7563 686.01 15.6966 685.128 14.974 684.521C14.6128 684.218 14.3353 683.985 14.1457 683.824C14.0509 683.744 13.9776 683.682 13.9268 683.638C13.9018 683.617 13.8822 683.6 13.8681 683.588C13.861 683.582 13.8553 683.577 13.851 683.573C13.849 683.571 13.8464 683.57 13.8453 683.569C13.8435 683.567 13.8424 683.566 20.3432 675.968L13.8425 683.566L10.1718 680.425L34.8888 11.329L44.7899 11.599L2298.62 73.2325L2318.34 73.7723L2306.25 89.3581L2298.35 83.2292C2306.25 89.3579 2306.25 89.3608 2306.24 89.3638C2306.24 89.3655 2306.24 89.3685 2306.24 89.3714C2306.23 89.3778 2306.23 89.3863 2306.22 89.3961C2306.2 89.4158 2306.18 89.4426 2306.16 89.4759C2306.11 89.5426 2306.03 89.6368 2305.94 89.757C2305.75 89.9979 2305.47 90.3449 2305.11 90.7926C2304.39 91.6883 2303.33 92.9872 2301.94 94.645C2299.16 97.9604 2295.07 102.713 2289.72 108.552C2279.04 120.226 2263.35 136.262 2243.24 153.826C2203.07 188.902 2144.92 230.357 2073.43 255.131C1942.15 300.629 1846.77 345.554 1782.53 395.707C1745.45 424.657 1729.06 444.672 1712.39 467.773C1695.42 491.301 1677.81 518.6 1639 560.721C1623.7 577.32 1611.34 595.638 1598.9 614.496C1586.59 633.155 1574.12 652.504 1559.04 669.94C1528.23 705.557 1486.72 732.983 1412.48 737.355C1252.62 746.771 1246.29 727.763 1132.1 715.284C1096.3 711.372 1074.86 712.196 1044.1 716.253C1028.49 718.313 1010.65 721.184 987.21 724.739C963.849 728.281 935.193 732.459 898.3 737.075C825.328 746.206 752.614 767.975 677.599 787.445C602.993 806.81 526.525 823.761 447.906 822.146Z" fill="#662BF5" stroke="#FF3D00" stroke-width="20"/>
</svg>
